<?xml version="1.0" encoding="UTF-8" standalone="no"?>
<!DOCTYPE svg PUBLIC "-//W3C//DTD SVG 1.1//EN"
 "http://www.w3.org/Graphics/SVG/1.1/DTD/svg11.dtd">
<!-- Generated by graphviz version 2.46.0 (20210119.1425)
 -->
<!-- Title: dependencies Pages: 1 -->
<svg width="733pt" height="211pt"
 viewBox="0.00 0.00 733.00 211.00" xmlns="http://www.w3.org/2000/svg" xmlns:xlink="http://www.w3.org/1999/xlink">
<g id="graph0" class="graph" transform="scale(1 1) rotate(0) translate(4 207)">
<title>dependencies</title>
<polygon fill="white" stroke="transparent" points="-4,4 -4,-207 729,-207 729,4 -4,4"/>
<text text-anchor="start" x="341.51" y="-42.4" font-family="sans-serif" font-weight="bold" font-size="14.00">Legend</text>
<polygon fill="#ffffb3" stroke="transparent" points="128.5,-10 128.5,-30 148.5,-30 148.5,-10 128.5,-10"/>
<text text-anchor="start" x="152.13" y="-15.4" font-family="sans-serif" font-size="14.00"> &#160;Declarations</text>
<polygon fill="#8dd3c7" stroke="transparent" points="241.5,-10 241.5,-30 261.5,-30 261.5,-10 241.5,-10"/>
<text text-anchor="start" x="265.23" y="-15.4" font-family="sans-serif" font-size="14.00"> &#160;Module</text>
<polygon fill="#80b1d3" stroke="transparent" points="327.5,-10 327.5,-30 347.5,-30 347.5,-10 327.5,-10"/>
<text text-anchor="start" x="351.28" y="-15.4" font-family="sans-serif" font-size="14.00"> &#160;Bootstrap</text>
<polygon fill="#fdb462" stroke="transparent" points="424.5,-10 424.5,-30 444.5,-30 444.5,-10 424.5,-10"/>
<text text-anchor="start" x="448.17" y="-15.4" font-family="sans-serif" font-size="14.00"> &#160;Providers</text>
<polygon fill="#fb8072" stroke="transparent" points="520.5,-10 520.5,-30 540.5,-30 540.5,-10 520.5,-10"/>
<text text-anchor="start" x="544.23" y="-15.4" font-family="sans-serif" font-size="14.00"> &#160;Exports</text>
<g id="clust1" class="cluster">
<title>cluster_AlertDialogModule</title>
<polygon fill="none" stroke="black" stroke-dasharray="1,5" points="8,-70 8,-195 717,-195 717,-70 8,-70"/>
</g>
<g id="clust2" class="cluster">
<title>cluster_AlertDialogModule_declarations</title>
<polygon fill="none" stroke="black" points="16,-78 16,-130 709,-130 709,-78 16,-78"/>
</g>
<!-- ErrorDialogComponent -->
<g id="node1" class="node">
<title>ErrorDialogComponent</title>
<polygon fill="#ffffb3" stroke="black" points="701.47,-122 552.53,-122 552.53,-86 701.47,-86 701.47,-122"/>
<text text-anchor="middle" x="627" y="-99.8" font-family="Times,serif" font-size="14.00">ErrorDialogComponent</text>
</g>
<!-- AlertDialogModule -->
<g id="node5" class="node">
<title>AlertDialogModule</title>
<polygon fill="#8dd3c7" stroke="black" points="440.42,-187 437.42,-191 416.42,-191 413.42,-187 313.58,-187 313.58,-151 440.42,-151 440.42,-187"/>
<text text-anchor="middle" x="377" y="-164.8" font-family="Times,serif" font-size="14.00">AlertDialogModule</text>
</g>
<!-- ErrorDialogComponent&#45;&gt;AlertDialogModule -->
<g id="edge1" class="edge">
<title>ErrorDialogComponent&#45;&gt;AlertDialogModule</title>
<path fill="none" stroke="black" d="M627,-122.11C627,-141.34 627,-169 627,-169 627,-169 450.41,-169 450.41,-169"/>
<polygon fill="black" stroke="black" points="450.41,-165.5 440.41,-169 450.41,-172.5 450.41,-165.5"/>
</g>
<!-- InfoDialogComponent -->
<g id="node2" class="node">
<title>InfoDialogComponent</title>
<polygon fill="#ffffb3" stroke="black" points="534.26,-122 391.74,-122 391.74,-86 534.26,-86 534.26,-122"/>
<text text-anchor="middle" x="463" y="-99.8" font-family="Times,serif" font-size="14.00">InfoDialogComponent</text>
</g>
<!-- InfoDialogComponent&#45;&gt;AlertDialogModule -->
<g id="edge2" class="edge">
<title>InfoDialogComponent&#45;&gt;AlertDialogModule</title>
<path fill="none" stroke="black" d="M415.91,-122.11C415.91,-122.11 415.91,-140.99 415.91,-140.99"/>
<polygon fill="black" stroke="black" points="412.41,-140.99 415.91,-150.99 419.41,-140.99 412.41,-140.99"/>
</g>
<!-- SuccessDialogComponent -->
<g id="node3" class="node">
<title>SuccessDialogComponent</title>
<polygon fill="#ffffb3" stroke="black" points="373.75,-122 210.25,-122 210.25,-86 373.75,-86 373.75,-122"/>
<text text-anchor="middle" x="292" y="-99.8" font-family="Times,serif" font-size="14.00">SuccessDialogComponent</text>
</g>
<!-- SuccessDialogComponent&#45;&gt;AlertDialogModule -->
<g id="edge3" class="edge">
<title>SuccessDialogComponent&#45;&gt;AlertDialogModule</title>
<path fill="none" stroke="black" d="M343.83,-122.11C343.83,-122.11 343.83,-140.99 343.83,-140.99"/>
<polygon fill="black" stroke="black" points="340.33,-140.99 343.83,-150.99 347.33,-140.99 340.33,-140.99"/>
</g>
<!-- WarningDialogComponent -->
<g id="node4" class="node">
<title>WarningDialogComponent</title>
<polygon fill="#ffffb3" stroke="black" points="192.42,-122 23.58,-122 23.58,-86 192.42,-86 192.42,-122"/>
<text text-anchor="middle" x="108" y="-99.8" font-family="Times,serif" font-size="14.00">WarningDialogComponent</text>
</g>
<!-- WarningDialogComponent&#45;&gt;AlertDialogModule -->
<g id="edge4" class="edge">
<title>WarningDialogComponent&#45;&gt;AlertDialogModule</title>
<path fill="none" stroke="black" d="M108,-122.11C108,-141.34 108,-169 108,-169 108,-169 303.59,-169 303.59,-169"/>
<polygon fill="black" stroke="black" points="303.59,-172.5 313.59,-169 303.59,-165.5 303.59,-172.5"/>
</g>
</g>
</svg>
