<?xml version="1.0" encoding="UTF-8" standalone="no"?>
<!DOCTYPE svg PUBLIC "-//W3C//DTD SVG 1.1//EN"
 "http://www.w3.org/Graphics/SVG/1.1/DTD/svg11.dtd">
<!-- Generated by graphviz version 2.46.0 (20210119.1425)
 -->
<!-- Title: dependencies Pages: 1 -->
<svg width="1310pt" height="211pt"
 viewBox="0.00 0.00 1310.00 211.00" xmlns="http://www.w3.org/2000/svg" xmlns:xlink="http://www.w3.org/1999/xlink">
<g id="graph0" class="graph" transform="scale(1 1) rotate(0) translate(4 207)">
<title>dependencies</title>
<polygon fill="white" stroke="transparent" points="-4,4 -4,-207 1306,-207 1306,4 -4,4"/>
<text text-anchor="start" x="630.01" y="-42.4" font-family="sans-serif" font-weight="bold" font-size="14.00">Legend</text>
<polygon fill="#ffffb3" stroke="transparent" points="417,-10 417,-30 437,-30 437,-10 417,-10"/>
<text text-anchor="start" x="440.63" y="-15.4" font-family="sans-serif" font-size="14.00"> &#160;Declarations</text>
<polygon fill="#8dd3c7" stroke="transparent" points="530,-10 530,-30 550,-30 550,-10 530,-10"/>
<text text-anchor="start" x="553.73" y="-15.4" font-family="sans-serif" font-size="14.00"> &#160;Module</text>
<polygon fill="#80b1d3" stroke="transparent" points="616,-10 616,-30 636,-30 636,-10 616,-10"/>
<text text-anchor="start" x="639.78" y="-15.4" font-family="sans-serif" font-size="14.00"> &#160;Bootstrap</text>
<polygon fill="#fdb462" stroke="transparent" points="713,-10 713,-30 733,-30 733,-10 713,-10"/>
<text text-anchor="start" x="736.67" y="-15.4" font-family="sans-serif" font-size="14.00"> &#160;Providers</text>
<polygon fill="#fb8072" stroke="transparent" points="809,-10 809,-30 829,-30 829,-10 809,-10"/>
<text text-anchor="start" x="832.73" y="-15.4" font-family="sans-serif" font-size="14.00"> &#160;Exports</text>
<g id="clust1" class="cluster">
<title>cluster_SharedModule</title>
<polygon fill="none" stroke="black" stroke-dasharray="1,5" points="8,-70 8,-195 1294,-195 1294,-70 8,-70"/>
</g>
<g id="clust2" class="cluster">
<title>cluster_SharedModule_declarations</title>
<polygon fill="none" stroke="black" points="184,-78 184,-130 1286,-130 1286,-78 184,-78"/>
</g>
<g id="clust10" class="cluster">
<title>cluster_SharedModule_imports</title>
<polygon fill="none" stroke="black" points="16,-78 16,-130 176,-130 176,-78 16,-78"/>
</g>
<!-- ErrorComponent -->
<g id="node1" class="node">
<title>ErrorComponent</title>
<polygon fill="#ffffb3" stroke="black" points="1278.37,-122 1167.63,-122 1167.63,-86 1278.37,-86 1278.37,-122"/>
<text text-anchor="middle" x="1223" y="-99.8" font-family="Times,serif" font-size="14.00">ErrorComponent</text>
</g>
<!-- SharedModule -->
<g id="node8" class="node">
<title>SharedModule</title>
<polygon fill="#8dd3c7" stroke="black" points="689.42,-187 686.42,-191 665.42,-191 662.42,-187 590.58,-187 590.58,-151 689.42,-151 689.42,-187"/>
<text text-anchor="middle" x="640" y="-164.8" font-family="Times,serif" font-size="14.00">SharedModule</text>
</g>
<!-- ErrorComponent&#45;&gt;SharedModule -->
<g id="edge1" class="edge">
<title>ErrorComponent&#45;&gt;SharedModule</title>
<path fill="none" stroke="black" d="M1223,-122.29C1223,-144.21 1223,-178 1223,-178 1223,-178 699.45,-178 699.45,-178"/>
<polygon fill="black" stroke="black" points="699.45,-174.5 689.45,-178 699.45,-181.5 699.45,-174.5"/>
</g>
<!-- LoadingIndicatorComponent -->
<g id="node2" class="node">
<title>LoadingIndicatorComponent</title>
<polygon fill="#ffffb3" stroke="black" points="1149.02,-122 970.98,-122 970.98,-86 1149.02,-86 1149.02,-122"/>
<text text-anchor="middle" x="1060" y="-99.8" font-family="Times,serif" font-size="14.00">LoadingIndicatorComponent</text>
</g>
<!-- LoadingIndicatorComponent&#45;&gt;SharedModule -->
<g id="edge2" class="edge">
<title>LoadingIndicatorComponent&#45;&gt;SharedModule</title>
<path fill="none" stroke="black" d="M1060,-122.11C1060,-141.34 1060,-169 1060,-169 1060,-169 699.41,-169 699.41,-169"/>
<polygon fill="black" stroke="black" points="699.41,-165.5 689.41,-169 699.41,-172.5 699.41,-165.5"/>
</g>
<!-- MainLayoutComponent -->
<g id="node3" class="node">
<title>MainLayoutComponent</title>
<polygon fill="#ffffb3" stroke="black" points="952.04,-122 801.96,-122 801.96,-86 952.04,-86 952.04,-122"/>
<text text-anchor="middle" x="877" y="-99.8" font-family="Times,serif" font-size="14.00">MainLayoutComponent</text>
</g>
<!-- MainLayoutComponent&#45;&gt;SharedModule -->
<g id="edge3" class="edge">
<title>MainLayoutComponent&#45;&gt;SharedModule</title>
<path fill="none" stroke="black" d="M877,-122.03C877,-138.4 877,-160 877,-160 877,-160 699.39,-160 699.39,-160"/>
<polygon fill="black" stroke="black" points="699.39,-156.5 689.39,-160 699.39,-163.5 699.39,-156.5"/>
</g>
<!-- NavMenuComponent -->
<g id="node4" class="node">
<title>NavMenuComponent</title>
<polygon fill="#ffffb3" stroke="black" points="783.81,-122 646.19,-122 646.19,-86 783.81,-86 783.81,-122"/>
<text text-anchor="middle" x="715" y="-99.8" font-family="Times,serif" font-size="14.00">NavMenuComponent</text>
</g>
<!-- NavMenuComponent&#45;&gt;SharedModule -->
<g id="edge4" class="edge">
<title>NavMenuComponent&#45;&gt;SharedModule</title>
<path fill="none" stroke="black" d="M667.78,-122.11C667.78,-122.11 667.78,-140.99 667.78,-140.99"/>
<polygon fill="black" stroke="black" points="664.28,-140.99 667.78,-150.99 671.28,-140.99 664.28,-140.99"/>
</g>
<!-- NavMenuDirective -->
<g id="node5" class="node">
<title>NavMenuDirective</title>
<polygon fill="#ffffb3" stroke="black" points="628.06,-122 503.94,-122 503.94,-86 628.06,-86 628.06,-122"/>
<text text-anchor="middle" x="566" y="-99.8" font-family="Times,serif" font-size="14.00">NavMenuDirective</text>
</g>
<!-- NavMenuDirective&#45;&gt;SharedModule -->
<g id="edge5" class="edge">
<title>NavMenuDirective&#45;&gt;SharedModule</title>
<path fill="none" stroke="black" d="M609.41,-122.11C609.41,-122.11 609.41,-140.99 609.41,-140.99"/>
<polygon fill="black" stroke="black" points="605.91,-140.99 609.41,-150.99 612.91,-140.99 605.91,-140.99"/>
</g>
<!-- SidebarComponent -->
<g id="node6" class="node">
<title>SidebarComponent</title>
<polygon fill="#ffffb3" stroke="black" points="486.1,-122 361.9,-122 361.9,-86 486.1,-86 486.1,-122"/>
<text text-anchor="middle" x="424" y="-99.8" font-family="Times,serif" font-size="14.00">SidebarComponent</text>
</g>
<!-- SidebarComponent&#45;&gt;SharedModule -->
<g id="edge6" class="edge">
<title>SidebarComponent&#45;&gt;SharedModule</title>
<path fill="none" stroke="black" d="M424,-122.03C424,-138.4 424,-160 424,-160 424,-160 580.72,-160 580.72,-160"/>
<polygon fill="black" stroke="black" points="580.72,-163.5 590.72,-160 580.72,-156.5 580.72,-163.5"/>
</g>
<!-- UserOptionsComponent -->
<g id="node7" class="node">
<title>UserOptionsComponent</title>
<polygon fill="#ffffb3" stroke="black" points="344.09,-122 191.91,-122 191.91,-86 344.09,-86 344.09,-122"/>
<text text-anchor="middle" x="268" y="-99.8" font-family="Times,serif" font-size="14.00">UserOptionsComponent</text>
</g>
<!-- UserOptionsComponent&#45;&gt;SharedModule -->
<g id="edge7" class="edge">
<title>UserOptionsComponent&#45;&gt;SharedModule</title>
<path fill="none" stroke="black" d="M268,-122.11C268,-141.34 268,-169 268,-169 268,-169 580.6,-169 580.6,-169"/>
<polygon fill="black" stroke="black" points="580.6,-172.5 590.6,-169 580.6,-165.5 580.6,-172.5"/>
</g>
<!-- SharedRoutingModule -->
<g id="node9" class="node">
<title>SharedRoutingModule</title>
<polygon fill="#8dd3c7" stroke="black" points="167.54,-122 164.54,-126 143.54,-126 140.54,-122 24.46,-122 24.46,-86 167.54,-86 167.54,-122"/>
<text text-anchor="middle" x="96" y="-99.8" font-family="Times,serif" font-size="14.00">SharedRoutingModule</text>
</g>
<!-- SharedRoutingModule&#45;&gt;SharedModule -->
<g id="edge8" class="edge">
<title>SharedRoutingModule&#45;&gt;SharedModule</title>
<path fill="none" stroke="black" d="M96,-122.29C96,-144.21 96,-178 96,-178 96,-178 580.76,-178 580.76,-178"/>
<polygon fill="black" stroke="black" points="580.76,-181.5 590.76,-178 580.76,-174.5 580.76,-181.5"/>
</g>
</g>
</svg>
