<?xml version="1.0" encoding="UTF-8" standalone="no"?>
<!DOCTYPE svg PUBLIC "-//W3C//DTD SVG 1.1//EN"
 "http://www.w3.org/Graphics/SVG/1.1/DTD/svg11.dtd">
<!-- Generated by graphviz version 2.46.0 (20210119.1425)
 -->
<!-- Title: dependencies Pages: 1 -->
<svg width="768pt" height="211pt"
 viewBox="0.00 0.00 768.00 211.00" xmlns="http://www.w3.org/2000/svg" xmlns:xlink="http://www.w3.org/1999/xlink">
<g id="graph0" class="graph" transform="scale(1 1) rotate(0) translate(4 207)">
<title>dependencies</title>
<polygon fill="white" stroke="transparent" points="-4,4 -4,-207 764,-207 764,4 -4,4"/>
<text text-anchor="start" x="359.01" y="-42.4" font-family="sans-serif" font-weight="bold" font-size="14.00">Legend</text>
<polygon fill="#ffffb3" stroke="transparent" points="146,-10 146,-30 166,-30 166,-10 146,-10"/>
<text text-anchor="start" x="169.63" y="-15.4" font-family="sans-serif" font-size="14.00"> &#160;Declarations</text>
<polygon fill="#8dd3c7" stroke="transparent" points="259,-10 259,-30 279,-30 279,-10 259,-10"/>
<text text-anchor="start" x="282.73" y="-15.4" font-family="sans-serif" font-size="14.00"> &#160;Module</text>
<polygon fill="#80b1d3" stroke="transparent" points="345,-10 345,-30 365,-30 365,-10 345,-10"/>
<text text-anchor="start" x="368.78" y="-15.4" font-family="sans-serif" font-size="14.00"> &#160;Bootstrap</text>
<polygon fill="#fdb462" stroke="transparent" points="442,-10 442,-30 462,-30 462,-10 442,-10"/>
<text text-anchor="start" x="465.67" y="-15.4" font-family="sans-serif" font-size="14.00"> &#160;Providers</text>
<polygon fill="#fb8072" stroke="transparent" points="538,-10 538,-30 558,-30 558,-10 538,-10"/>
<text text-anchor="start" x="561.73" y="-15.4" font-family="sans-serif" font-size="14.00"> &#160;Exports</text>
<g id="clust1" class="cluster">
<title>cluster_SettingsModule</title>
<polygon fill="none" stroke="black" stroke-dasharray="1,5" points="8,-70 8,-195 752,-195 752,-70 8,-70"/>
</g>
<g id="clust6" class="cluster">
<title>cluster_SettingsModule_imports</title>
<polygon fill="none" stroke="black" points="578,-78 578,-130 744,-130 744,-78 578,-78"/>
</g>
<g id="clust2" class="cluster">
<title>cluster_SettingsModule_declarations</title>
<polygon fill="none" stroke="black" points="16,-78 16,-130 570,-130 570,-78 16,-78"/>
</g>
<!-- SettingsGeneralComponent -->
<g id="node1" class="node">
<title>SettingsGeneralComponent</title>
<polygon fill="#ffffb3" stroke="black" points="562.25,-122 391.75,-122 391.75,-86 562.25,-86 562.25,-122"/>
<text text-anchor="middle" x="477" y="-99.8" font-family="Times,serif" font-size="14.00">SettingsGeneralComponent</text>
</g>
<!-- SettingsModule -->
<g id="node4" class="node">
<title>SettingsModule</title>
<polygon fill="#8dd3c7" stroke="black" points="437.16,-187 434.16,-191 413.16,-191 410.16,-187 332.84,-187 332.84,-151 437.16,-151 437.16,-187"/>
<text text-anchor="middle" x="385" y="-164.8" font-family="Times,serif" font-size="14.00">SettingsModule</text>
</g>
<!-- SettingsGeneralComponent&#45;&gt;SettingsModule -->
<g id="edge1" class="edge">
<title>SettingsGeneralComponent&#45;&gt;SettingsModule</title>
<path fill="none" stroke="black" d="M414.48,-122.11C414.48,-122.11 414.48,-140.99 414.48,-140.99"/>
<polygon fill="black" stroke="black" points="410.98,-140.99 414.48,-150.99 417.98,-140.99 410.98,-140.99"/>
</g>
<!-- SettingsHomeComponent -->
<g id="node2" class="node">
<title>SettingsHomeComponent</title>
<polygon fill="#ffffb3" stroke="black" points="373.16,-122 212.84,-122 212.84,-86 373.16,-86 373.16,-122"/>
<text text-anchor="middle" x="293" y="-99.8" font-family="Times,serif" font-size="14.00">SettingsHomeComponent</text>
</g>
<!-- SettingsHomeComponent&#45;&gt;SettingsModule -->
<g id="edge2" class="edge">
<title>SettingsHomeComponent&#45;&gt;SettingsModule</title>
<path fill="none" stroke="black" d="M353,-122.11C353,-122.11 353,-140.99 353,-140.99"/>
<polygon fill="black" stroke="black" points="349.5,-140.99 353,-150.99 356.5,-140.99 349.5,-140.99"/>
</g>
<!-- SettingsThemesComponent -->
<g id="node3" class="node">
<title>SettingsThemesComponent</title>
<polygon fill="#ffffb3" stroke="black" points="194.26,-122 23.74,-122 23.74,-86 194.26,-86 194.26,-122"/>
<text text-anchor="middle" x="109" y="-99.8" font-family="Times,serif" font-size="14.00">SettingsThemesComponent</text>
</g>
<!-- SettingsThemesComponent&#45;&gt;SettingsModule -->
<g id="edge3" class="edge">
<title>SettingsThemesComponent&#45;&gt;SettingsModule</title>
<path fill="none" stroke="black" d="M109,-122.11C109,-141.34 109,-169 109,-169 109,-169 322.76,-169 322.76,-169"/>
<polygon fill="black" stroke="black" points="322.76,-172.5 332.76,-169 322.76,-165.5 322.76,-172.5"/>
</g>
<!-- SettingsRoutingModule -->
<g id="node5" class="node">
<title>SettingsRoutingModule</title>
<polygon fill="#8dd3c7" stroke="black" points="735.78,-122 732.78,-126 711.78,-126 708.78,-122 586.22,-122 586.22,-86 735.78,-86 735.78,-122"/>
<text text-anchor="middle" x="661" y="-99.8" font-family="Times,serif" font-size="14.00">SettingsRoutingModule</text>
</g>
<!-- SettingsRoutingModule&#45;&gt;SettingsModule -->
<g id="edge4" class="edge">
<title>SettingsRoutingModule&#45;&gt;SettingsModule</title>
<path fill="none" stroke="black" d="M661,-122.11C661,-141.34 661,-169 661,-169 661,-169 447.24,-169 447.24,-169"/>
<polygon fill="black" stroke="black" points="447.24,-165.5 437.24,-169 447.24,-172.5 447.24,-165.5"/>
</g>
</g>
</svg>
