<?xml version="1.0" encoding="UTF-8" standalone="no"?>
<!DOCTYPE svg PUBLIC "-//W3C//DTD SVG 1.1//EN"
 "http://www.w3.org/Graphics/SVG/1.1/DTD/svg11.dtd">
<!-- Generated by graphviz version 2.46.0 (20210119.1425)
 -->
<!-- Title: dependencies Pages: 1 -->
<svg width="5483pt" height="360pt"
 viewBox="0.00 0.00 5483.00 360.00" xmlns="http://www.w3.org/2000/svg" xmlns:xlink="http://www.w3.org/1999/xlink">
<g id="graph0" class="graph" transform="scale(1 1) rotate(0) translate(4 356)">
<title>dependencies</title>
<polygon fill="white" stroke="transparent" points="-4,4 -4,-356 5479,-356 5479,4 -4,4"/>
<text text-anchor="start" x="2716.51" y="-42.4" font-family="sans-serif" font-weight="bold" font-size="14.00">Legend</text>
<polygon fill="#ffffb3" stroke="transparent" points="2503.5,-10 2503.5,-30 2523.5,-30 2523.5,-10 2503.5,-10"/>
<text text-anchor="start" x="2527.13" y="-15.4" font-family="sans-serif" font-size="14.00"> &#160;Declarations</text>
<polygon fill="#8dd3c7" stroke="transparent" points="2616.5,-10 2616.5,-30 2636.5,-30 2636.5,-10 2616.5,-10"/>
<text text-anchor="start" x="2640.23" y="-15.4" font-family="sans-serif" font-size="14.00"> &#160;Module</text>
<polygon fill="#80b1d3" stroke="transparent" points="2702.5,-10 2702.5,-30 2722.5,-30 2722.5,-10 2702.5,-10"/>
<text text-anchor="start" x="2726.28" y="-15.4" font-family="sans-serif" font-size="14.00"> &#160;Bootstrap</text>
<polygon fill="#fdb462" stroke="transparent" points="2799.5,-10 2799.5,-30 2819.5,-30 2819.5,-10 2799.5,-10"/>
<text text-anchor="start" x="2823.17" y="-15.4" font-family="sans-serif" font-size="14.00"> &#160;Providers</text>
<polygon fill="#fb8072" stroke="transparent" points="2895.5,-10 2895.5,-30 2915.5,-30 2915.5,-10 2895.5,-10"/>
<text text-anchor="start" x="2919.23" y="-15.4" font-family="sans-serif" font-size="14.00"> &#160;Exports</text>
<g id="clust1" class="cluster">
<title>cluster_AccountModule</title>
<polygon fill="none" stroke="black" stroke-dasharray="1,5" points="8,-70 8,-206 1288,-206 1288,-70 8,-70"/>
</g>
<g id="clust2" class="cluster">
<title>cluster_AccountModule_declarations</title>
<polygon fill="none" stroke="black" points="192,-78 192,-130 1280,-130 1280,-78 192,-78"/>
</g>
<g id="clust8" class="cluster">
<title>cluster_AccountModule_imports</title>
<polygon fill="none" stroke="black" points="16,-78 16,-130 184,-130 184,-78 16,-78"/>
</g>
<g id="clust18" class="cluster">
<title>cluster_AlertDialogModule</title>
<polygon fill="none" stroke="black" stroke-dasharray="1,5" points="1296,-70 1296,-206 2005,-206 2005,-70 1296,-70"/>
</g>
<g id="clust19" class="cluster">
<title>cluster_AlertDialogModule_declarations</title>
<polygon fill="none" stroke="black" points="1304,-78 1304,-130 1997,-130 1997,-78 1304,-78"/>
</g>
<g id="clust28" class="cluster">
<title>cluster_AppHomeModule</title>
<polygon fill="none" stroke="black" stroke-dasharray="1,5" points="2013,-70 2013,-206 2407,-206 2407,-70 2013,-70"/>
</g>
<g id="clust29" class="cluster">
<title>cluster_AppHomeModule_declarations</title>
<polygon fill="none" stroke="black" points="2207,-78 2207,-130 2399,-130 2399,-78 2207,-78"/>
</g>
<g id="clust31" class="cluster">
<title>cluster_AppHomeModule_imports</title>
<polygon fill="none" stroke="black" points="2021,-78 2021,-130 2199,-130 2199,-78 2021,-78"/>
</g>
<g id="clust41" class="cluster">
<title>cluster_AppModule</title>
<polygon fill="none" stroke="black" stroke-dasharray="1,5" points="2658,-146 2658,-344 3389,-344 3389,-146 2658,-146"/>
</g>
<g id="clust42" class="cluster">
<title>cluster_AppModule_declarations</title>
<polygon fill="none" stroke="black" points="3259,-154 3259,-206 3381,-206 3381,-154 3259,-154"/>
</g>
<g id="clust44" class="cluster">
<title>cluster_AppModule_imports</title>
<polygon fill="none" stroke="black" points="2990,-154 2990,-206 3251,-206 3251,-154 2990,-154"/>
</g>
<g id="clust46" class="cluster">
<title>cluster_AppModule_bootstrap</title>
<polygon fill="none" stroke="black" points="2985,-284 2985,-336 3109,-336 3109,-284 2985,-284"/>
</g>
<g id="clust47" class="cluster">
<title>cluster_AppModule_providers</title>
<polygon fill="none" stroke="black" points="2666,-154 2666,-206 2982,-206 2982,-154 2666,-154"/>
</g>
<g id="clust54" class="cluster">
<title>cluster_AuthModule</title>
<polygon fill="none" stroke="black" stroke-dasharray="1,5" points="3709,-70 3709,-206 4205,-206 4205,-70 3709,-70"/>
</g>
<g id="clust55" class="cluster">
<title>cluster_AuthModule_declarations</title>
<polygon fill="none" stroke="black" points="3873,-78 3873,-130 4197,-130 4197,-78 3873,-78"/>
</g>
<g id="clust58" class="cluster">
<title>cluster_AuthModule_imports</title>
<polygon fill="none" stroke="black" points="3717,-78 3717,-130 3865,-130 3865,-78 3717,-78"/>
</g>
<g id="clust68" class="cluster">
<title>cluster_PermissionCentreModule</title>
<polygon fill="none" stroke="black" stroke-dasharray="1,5" points="4213,-70 4213,-206 4715,-206 4715,-70 4213,-70"/>
</g>
<g id="clust69" class="cluster">
<title>cluster_PermissionCentreModule_declarations</title>
<polygon fill="none" stroke="black" points="4449,-78 4449,-130 4707,-130 4707,-78 4449,-78"/>
</g>
<g id="clust71" class="cluster">
<title>cluster_PermissionCentreModule_imports</title>
<polygon fill="none" stroke="black" points="4221,-78 4221,-130 4441,-130 4441,-78 4221,-78"/>
</g>
<g id="clust81" class="cluster">
<title>cluster_SettingsModule</title>
<polygon fill="none" stroke="black" stroke-dasharray="1,5" points="4723,-70 4723,-206 5467,-206 5467,-70 4723,-70"/>
</g>
<g id="clust82" class="cluster">
<title>cluster_SettingsModule_declarations</title>
<polygon fill="none" stroke="black" points="4905,-78 4905,-130 5459,-130 5459,-78 4905,-78"/>
</g>
<g id="clust86" class="cluster">
<title>cluster_SettingsModule_imports</title>
<polygon fill="none" stroke="black" points="4731,-78 4731,-130 4897,-130 4897,-78 4731,-78"/>
</g>
<g id="clust96" class="cluster">
<title>cluster_SharedModule</title>
<polygon fill="none" stroke="black" stroke-dasharray="1,5" points="2415,-70 2415,-138 3701,-138 3701,-70 2415,-70"/>
</g>
<g id="clust97" class="cluster">
<title>cluster_SharedModule_declarations</title>
<polygon fill="none" stroke="black" points="2591,-78 2591,-130 3693,-130 3693,-78 2591,-78"/>
</g>
<g id="clust105" class="cluster">
<title>cluster_SharedModule_imports</title>
<polygon fill="none" stroke="black" points="2423,-78 2423,-130 2583,-130 2583,-78 2423,-78"/>
</g>
<!-- AccountChangePasswordComponent -->
<g id="node1" class="node">
<title>AccountChangePasswordComponent</title>
<polygon fill="#ffffb3" stroke="black" points="1271.68,-122 1046.32,-122 1046.32,-86 1271.68,-86 1271.68,-122"/>
<text text-anchor="middle" x="1159" y="-99.8" font-family="Times,serif" font-size="14.00">AccountChangePasswordComponent</text>
</g>
<!-- AccountModule -->
<g id="node6" class="node">
<title>AccountModule</title>
<polygon fill="#8dd3c7" stroke="black" points="672.48,-198 669.48,-202 648.48,-202 645.48,-198 565.52,-198 565.52,-162 672.48,-162 672.48,-198"/>
<text text-anchor="middle" x="619" y="-175.8" font-family="Times,serif" font-size="14.00">AccountModule</text>
</g>
<!-- AccountChangePasswordComponent&#45;&gt;AccountModule -->
<g id="edge1" class="edge">
<title>AccountChangePasswordComponent&#45;&gt;AccountModule</title>
<path fill="none" stroke="black" d="M1159,-122.01C1159,-144.49 1159,-180 1159,-180 1159,-180 682.75,-180 682.75,-180"/>
<polygon fill="black" stroke="black" points="682.75,-176.5 672.75,-180 682.75,-183.5 682.75,-176.5"/>
</g>
<!-- AccountDashboardComponent -->
<g id="node2" class="node">
<title>AccountDashboardComponent</title>
<polygon fill="#ffffb3" stroke="black" points="1028.9,-122 839.1,-122 839.1,-86 1028.9,-86 1028.9,-122"/>
<text text-anchor="middle" x="934" y="-99.8" font-family="Times,serif" font-size="14.00">AccountDashboardComponent</text>
</g>
<!-- AccountDashboardComponent&#45;&gt;AccountModule -->
<g id="edge2" class="edge">
<title>AccountDashboardComponent&#45;&gt;AccountModule</title>
<path fill="none" stroke="black" d="M934,-122.31C934,-142.15 934,-171 934,-171 934,-171 682.79,-171 682.79,-171"/>
<polygon fill="black" stroke="black" points="682.79,-167.5 672.79,-171 682.79,-174.5 682.79,-167.5"/>
</g>
<!-- AccountNewProfileComponent -->
<g id="node3" class="node">
<title>AccountNewProfileComponent</title>
<polygon fill="#ffffb3" stroke="black" points="821.79,-122 628.21,-122 628.21,-86 821.79,-86 821.79,-122"/>
<text text-anchor="middle" x="725" y="-99.8" font-family="Times,serif" font-size="14.00">AccountNewProfileComponent</text>
</g>
<!-- AccountNewProfileComponent&#45;&gt;AccountModule -->
<g id="edge3" class="edge">
<title>AccountNewProfileComponent&#45;&gt;AccountModule</title>
<path fill="none" stroke="black" d="M650.42,-122.01C650.42,-122.01 650.42,-151.85 650.42,-151.85"/>
<polygon fill="black" stroke="black" points="646.92,-151.85 650.42,-161.85 653.92,-151.85 646.92,-151.85"/>
</g>
<!-- AccountProfileCardComponent -->
<g id="node4" class="node">
<title>AccountProfileCardComponent</title>
<polygon fill="#ffffb3" stroke="black" points="610.07,-122 415.93,-122 415.93,-86 610.07,-86 610.07,-122"/>
<text text-anchor="middle" x="513" y="-99.8" font-family="Times,serif" font-size="14.00">AccountProfileCardComponent</text>
</g>
<!-- AccountProfileCardComponent&#45;&gt;AccountModule -->
<g id="edge4" class="edge">
<title>AccountProfileCardComponent&#45;&gt;AccountModule</title>
<path fill="none" stroke="black" d="M587.77,-122.01C587.77,-122.01 587.77,-151.85 587.77,-151.85"/>
<polygon fill="black" stroke="black" points="584.27,-151.85 587.77,-161.85 591.27,-151.85 584.27,-151.85"/>
</g>
<!-- AccountProfileViewComponent -->
<g id="node5" class="node">
<title>AccountProfileViewComponent</title>
<polygon fill="#ffffb3" stroke="black" points="397.68,-122 200.32,-122 200.32,-86 397.68,-86 397.68,-122"/>
<text text-anchor="middle" x="299" y="-99.8" font-family="Times,serif" font-size="14.00">AccountProfileViewComponent</text>
</g>
<!-- AccountProfileViewComponent&#45;&gt;AccountModule -->
<g id="edge5" class="edge">
<title>AccountProfileViewComponent&#45;&gt;AccountModule</title>
<path fill="none" stroke="black" d="M299,-122.03C299,-142.77 299,-174 299,-174 299,-174 555.44,-174 555.44,-174"/>
<polygon fill="black" stroke="black" points="555.44,-177.5 565.44,-174 555.44,-170.5 555.44,-177.5"/>
</g>
<!-- AccountRoutingModule -->
<g id="node7" class="node">
<title>AccountRoutingModule</title>
<polygon fill="#8dd3c7" stroke="black" points="176.09,-122 173.09,-126 152.09,-126 149.09,-122 23.91,-122 23.91,-86 176.09,-86 176.09,-122"/>
<text text-anchor="middle" x="100" y="-99.8" font-family="Times,serif" font-size="14.00">AccountRoutingModule</text>
</g>
<!-- AccountRoutingModule&#45;&gt;AccountModule -->
<g id="edge6" class="edge">
<title>AccountRoutingModule&#45;&gt;AccountModule</title>
<path fill="none" stroke="black" d="M100,-122.2C100,-146.36 100,-186 100,-186 100,-186 555.41,-186 555.41,-186"/>
<polygon fill="black" stroke="black" points="555.41,-189.5 565.41,-186 555.41,-182.5 555.41,-189.5"/>
</g>
<!-- ErrorDialogComponent -->
<g id="node8" class="node">
<title>ErrorDialogComponent</title>
<polygon fill="#ffffb3" stroke="black" points="1989.47,-122 1840.53,-122 1840.53,-86 1989.47,-86 1989.47,-122"/>
<text text-anchor="middle" x="1915" y="-99.8" font-family="Times,serif" font-size="14.00">ErrorDialogComponent</text>
</g>
<!-- AlertDialogModule -->
<g id="node12" class="node">
<title>AlertDialogModule</title>
<polygon fill="#8dd3c7" stroke="black" points="1728.42,-198 1725.42,-202 1704.42,-202 1701.42,-198 1601.58,-198 1601.58,-162 1728.42,-162 1728.42,-198"/>
<text text-anchor="middle" x="1665" y="-175.8" font-family="Times,serif" font-size="14.00">AlertDialogModule</text>
</g>
<!-- ErrorDialogComponent&#45;&gt;AlertDialogModule -->
<g id="edge7" class="edge">
<title>ErrorDialogComponent&#45;&gt;AlertDialogModule</title>
<path fill="none" stroke="black" d="M1915,-122.01C1915,-144.49 1915,-180 1915,-180 1915,-180 1738.41,-180 1738.41,-180"/>
<polygon fill="black" stroke="black" points="1738.41,-176.5 1728.41,-180 1738.41,-183.5 1738.41,-176.5"/>
</g>
<!-- InfoDialogComponent -->
<g id="node9" class="node">
<title>InfoDialogComponent</title>
<polygon fill="#ffffb3" stroke="black" points="1822.26,-122 1679.74,-122 1679.74,-86 1822.26,-86 1822.26,-122"/>
<text text-anchor="middle" x="1751" y="-99.8" font-family="Times,serif" font-size="14.00">InfoDialogComponent</text>
</g>
<!-- InfoDialogComponent&#45;&gt;AlertDialogModule -->
<g id="edge8" class="edge">
<title>InfoDialogComponent&#45;&gt;AlertDialogModule</title>
<path fill="none" stroke="black" d="M1703.91,-122.01C1703.91,-122.01 1703.91,-151.85 1703.91,-151.85"/>
<polygon fill="black" stroke="black" points="1700.41,-151.85 1703.91,-161.85 1707.41,-151.85 1700.41,-151.85"/>
</g>
<!-- SuccessDialogComponent -->
<g id="node10" class="node">
<title>SuccessDialogComponent</title>
<polygon fill="#ffffb3" stroke="black" points="1661.75,-122 1498.25,-122 1498.25,-86 1661.75,-86 1661.75,-122"/>
<text text-anchor="middle" x="1580" y="-99.8" font-family="Times,serif" font-size="14.00">SuccessDialogComponent</text>
</g>
<!-- SuccessDialogComponent&#45;&gt;AlertDialogModule -->
<g id="edge9" class="edge">
<title>SuccessDialogComponent&#45;&gt;AlertDialogModule</title>
<path fill="none" stroke="black" d="M1631.83,-122.01C1631.83,-122.01 1631.83,-151.85 1631.83,-151.85"/>
<polygon fill="black" stroke="black" points="1628.33,-151.85 1631.83,-161.85 1635.33,-151.85 1628.33,-151.85"/>
</g>
<!-- WarningDialogComponent -->
<g id="node11" class="node">
<title>WarningDialogComponent</title>
<polygon fill="#ffffb3" stroke="black" points="1480.42,-122 1311.58,-122 1311.58,-86 1480.42,-86 1480.42,-122"/>
<text text-anchor="middle" x="1396" y="-99.8" font-family="Times,serif" font-size="14.00">WarningDialogComponent</text>
</g>
<!-- WarningDialogComponent&#45;&gt;AlertDialogModule -->
<g id="edge10" class="edge">
<title>WarningDialogComponent&#45;&gt;AlertDialogModule</title>
<path fill="none" stroke="black" d="M1396,-122.03C1396,-146.98 1396,-189 1396,-189 1396,-189 1591.59,-189 1591.59,-189"/>
<polygon fill="black" stroke="black" points="1591.59,-192.5 1601.59,-189 1591.59,-185.5 1591.59,-192.5"/>
</g>
<!-- HomeDashboardComponent -->
<g id="node13" class="node">
<title>HomeDashboardComponent</title>
<polygon fill="#ffffb3" stroke="black" points="2391.19,-122 2214.81,-122 2214.81,-86 2391.19,-86 2391.19,-122"/>
<text text-anchor="middle" x="2303" y="-99.8" font-family="Times,serif" font-size="14.00">HomeDashboardComponent</text>
</g>
<!-- AppHomeModule -->
<g id="node14" class="node">
<title>AppHomeModule</title>
<polygon fill="#8dd3c7" stroke="black" points="2264.87,-198 2261.87,-202 2240.87,-202 2237.87,-198 2147.13,-198 2147.13,-162 2264.87,-162 2264.87,-198"/>
<text text-anchor="middle" x="2206" y="-175.8" font-family="Times,serif" font-size="14.00">AppHomeModule</text>
</g>
<!-- HomeDashboardComponent&#45;&gt;AppHomeModule -->
<g id="edge11" class="edge">
<title>HomeDashboardComponent&#45;&gt;AppHomeModule</title>
<path fill="none" stroke="black" d="M2239.92,-122.01C2239.92,-122.01 2239.92,-151.85 2239.92,-151.85"/>
<polygon fill="black" stroke="black" points="2236.42,-151.85 2239.92,-161.85 2243.42,-151.85 2236.42,-151.85"/>
</g>
<!-- AppHomeRoutingModule -->
<g id="node15" class="node">
<title>AppHomeRoutingModule</title>
<polygon fill="#8dd3c7" stroke="black" points="2191.49,-122 2188.49,-126 2167.49,-126 2164.49,-122 2028.51,-122 2028.51,-86 2191.49,-86 2191.49,-122"/>
<text text-anchor="middle" x="2110" y="-99.8" font-family="Times,serif" font-size="14.00">AppHomeRoutingModule</text>
</g>
<!-- AppHomeRoutingModule&#45;&gt;AppHomeModule -->
<g id="edge12" class="edge">
<title>AppHomeRoutingModule&#45;&gt;AppHomeModule</title>
<path fill="none" stroke="black" d="M2169.28,-122.01C2169.28,-122.01 2169.28,-151.85 2169.28,-151.85"/>
<polygon fill="black" stroke="black" points="2165.78,-151.85 2169.28,-161.85 2172.78,-151.85 2165.78,-151.85"/>
</g>
<!-- AppComponent -->
<g id="node16" class="node">
<title>AppComponent</title>
<polygon fill="#ffffb3" stroke="black" points="3372.94,-198 3267.06,-198 3267.06,-162 3372.94,-162 3372.94,-198"/>
<text text-anchor="middle" x="3320" y="-175.8" font-family="Times,serif" font-size="14.00">AppComponent</text>
</g>
<!-- AppModule -->
<g id="node17" class="node">
<title>AppModule</title>
<polygon fill="#8dd3c7" stroke="black" points="3088.66,-263 3085.66,-267 3064.66,-267 3061.66,-263 3005.34,-263 3005.34,-227 3088.66,-227 3088.66,-263"/>
<text text-anchor="middle" x="3047" y="-240.8" font-family="Times,serif" font-size="14.00">AppModule</text>
</g>
<!-- AppComponent&#45;&gt;AppModule -->
<g id="edge13" class="edge">
<title>AppComponent&#45;&gt;AppModule</title>
<path fill="none" stroke="black" d="M3320,-198.28C3320,-219.32 3320,-251 3320,-251 3320,-251 3098.76,-251 3098.76,-251"/>
<polygon fill="black" stroke="black" points="3098.76,-247.5 3088.76,-251 3098.76,-254.5 3098.76,-247.5"/>
</g>
<!-- AppComponent  -->
<g id="node20" class="node">
<title>AppComponent </title>
<polygon fill="#80b1d3" stroke="black" points="3101.44,-328 2992.56,-328 2992.56,-292 3101.44,-292 3101.44,-328"/>
<text text-anchor="middle" x="3047" y="-305.8" font-family="Times,serif" font-size="14.00">AppComponent </text>
</g>
<!-- AppModule&#45;&gt;AppComponent  -->
<g id="edge16" class="edge">
<title>AppModule&#45;&gt;AppComponent </title>
<path fill="none" stroke="black" stroke-dasharray="1,5" d="M3047,-263.11C3047,-263.11 3047,-281.99 3047,-281.99"/>
<polygon fill="black" stroke="black" points="3043.5,-281.99 3047,-291.99 3050.5,-281.99 3043.5,-281.99"/>
</g>
<!-- AppRoutingModule -->
<g id="node18" class="node">
<title>AppRoutingModule</title>
<polygon fill="#8dd3c7" stroke="black" points="3243.27,-198 3240.27,-202 3219.27,-202 3216.27,-198 3114.73,-198 3114.73,-162 3243.27,-162 3243.27,-198"/>
<text text-anchor="middle" x="3179" y="-175.8" font-family="Times,serif" font-size="14.00">AppRoutingModule</text>
</g>
<!-- AppRoutingModule&#45;&gt;AppModule -->
<g id="edge14" class="edge">
<title>AppRoutingModule&#45;&gt;AppModule</title>
<path fill="none" stroke="black" d="M3179,-198.02C3179,-215.37 3179,-239 3179,-239 3179,-239 3098.77,-239 3098.77,-239"/>
<polygon fill="black" stroke="black" points="3098.77,-235.5 3088.77,-239 3098.77,-242.5 3098.77,-235.5"/>
</g>
<!-- SharedModule -->
<g id="node19" class="node">
<title>SharedModule</title>
<polygon fill="#8dd3c7" stroke="black" points="3096.42,-198 3093.42,-202 3072.42,-202 3069.42,-198 2997.58,-198 2997.58,-162 3096.42,-162 3096.42,-198"/>
<text text-anchor="middle" x="3047" y="-175.8" font-family="Times,serif" font-size="14.00">SharedModule</text>
</g>
<!-- SharedModule&#45;&gt;AppModule -->
<g id="edge15" class="edge">
<title>SharedModule&#45;&gt;AppModule</title>
<path fill="none" stroke="black" d="M3047,-198.11C3047,-198.11 3047,-216.99 3047,-216.99"/>
<polygon fill="black" stroke="black" points="3043.5,-216.99 3047,-226.99 3050.5,-216.99 3043.5,-216.99"/>
</g>
<!-- ErrorInterceptor -->
<g id="node21" class="node">
<title>ErrorInterceptor</title>
<ellipse fill="#fdb462" stroke="black" cx="2900" cy="-180" rx="73.53" ry="18"/>
<text text-anchor="middle" x="2900" y="-175.8" font-family="Times,serif" font-size="14.00">ErrorInterceptor</text>
</g>
<!-- ErrorInterceptor&#45;&gt;AppModule -->
<g id="edge17" class="edge">
<title>ErrorInterceptor&#45;&gt;AppModule</title>
<path fill="none" stroke="black" d="M2900,-198.02C2900,-215.37 2900,-239 2900,-239 2900,-239 2995.27,-239 2995.27,-239"/>
<polygon fill="black" stroke="black" points="2995.27,-242.5 3005.27,-239 2995.27,-235.5 2995.27,-242.5"/>
</g>
<!-- JwtInterceptor -->
<g id="node22" class="node">
<title>JwtInterceptor</title>
<ellipse fill="#fdb462" stroke="black" cx="2741" cy="-180" rx="66.61" ry="18"/>
<text text-anchor="middle" x="2741" y="-175.8" font-family="Times,serif" font-size="14.00">JwtInterceptor</text>
</g>
<!-- JwtInterceptor&#45;&gt;AppModule -->
<g id="edge18" class="edge">
<title>JwtInterceptor&#45;&gt;AppModule</title>
<path fill="none" stroke="black" d="M2741,-198.28C2741,-219.32 2741,-251 2741,-251 2741,-251 2995.09,-251 2995.09,-251"/>
<polygon fill="black" stroke="black" points="2995.09,-254.5 3005.09,-251 2995.09,-247.5 2995.09,-254.5"/>
</g>
<!-- AuthHomeComponent -->
<g id="node23" class="node">
<title>AuthHomeComponent</title>
<polygon fill="#ffffb3" stroke="black" points="4188.54,-122 4045.46,-122 4045.46,-86 4188.54,-86 4188.54,-122"/>
<text text-anchor="middle" x="4117" y="-99.8" font-family="Times,serif" font-size="14.00">AuthHomeComponent</text>
</g>
<!-- AuthModule -->
<g id="node25" class="node">
<title>AuthModule</title>
<polygon fill="#8dd3c7" stroke="black" points="3997.55,-198 3994.55,-202 3973.55,-202 3970.55,-198 3910.45,-198 3910.45,-162 3997.55,-162 3997.55,-198"/>
<text text-anchor="middle" x="3954" y="-175.8" font-family="Times,serif" font-size="14.00">AuthModule</text>
</g>
<!-- AuthHomeComponent&#45;&gt;AuthModule -->
<g id="edge19" class="edge">
<title>AuthHomeComponent&#45;&gt;AuthModule</title>
<path fill="none" stroke="black" d="M4117,-122.01C4117,-144.49 4117,-180 4117,-180 4117,-180 4007.68,-180 4007.68,-180"/>
<polygon fill="black" stroke="black" points="4007.68,-176.5 3997.68,-180 4007.68,-183.5 4007.68,-176.5"/>
</g>
<!-- AuthSignInComponent -->
<g id="node24" class="node">
<title>AuthSignInComponent</title>
<polygon fill="#ffffb3" stroke="black" points="4027.16,-122 3880.84,-122 3880.84,-86 4027.16,-86 4027.16,-122"/>
<text text-anchor="middle" x="3954" y="-99.8" font-family="Times,serif" font-size="14.00">AuthSignInComponent</text>
</g>
<!-- AuthSignInComponent&#45;&gt;AuthModule -->
<g id="edge20" class="edge">
<title>AuthSignInComponent&#45;&gt;AuthModule</title>
<path fill="none" stroke="black" d="M3954,-122.01C3954,-122.01 3954,-151.85 3954,-151.85"/>
<polygon fill="black" stroke="black" points="3950.5,-151.85 3954,-161.85 3957.5,-151.85 3950.5,-151.85"/>
</g>
<!-- AuthRoutingModule -->
<g id="node26" class="node">
<title>AuthRoutingModule</title>
<polygon fill="#8dd3c7" stroke="black" points="3857.17,-122 3854.17,-126 3833.17,-126 3830.17,-122 3724.83,-122 3724.83,-86 3857.17,-86 3857.17,-122"/>
<text text-anchor="middle" x="3791" y="-99.8" font-family="Times,serif" font-size="14.00">AuthRoutingModule</text>
</g>
<!-- AuthRoutingModule&#45;&gt;AuthModule -->
<g id="edge21" class="edge">
<title>AuthRoutingModule&#45;&gt;AuthModule</title>
<path fill="none" stroke="black" d="M3791,-122.01C3791,-144.49 3791,-180 3791,-180 3791,-180 3900.32,-180 3900.32,-180"/>
<polygon fill="black" stroke="black" points="3900.32,-183.5 3910.32,-180 3900.32,-176.5 3900.32,-183.5"/>
</g>
<!-- PermissionCentreDashboardComponent -->
<g id="node27" class="node">
<title>PermissionCentreDashboardComponent</title>
<polygon fill="#ffffb3" stroke="black" points="4698.51,-122 4457.49,-122 4457.49,-86 4698.51,-86 4698.51,-122"/>
<text text-anchor="middle" x="4578" y="-99.8" font-family="Times,serif" font-size="14.00">PermissionCentreDashboardComponent</text>
</g>
<!-- PermissionCentreModule -->
<g id="node28" class="node">
<title>PermissionCentreModule</title>
<polygon fill="#8dd3c7" stroke="black" points="4533.59,-198 4530.59,-202 4509.59,-202 4506.59,-198 4374.41,-198 4374.41,-162 4533.59,-162 4533.59,-198"/>
<text text-anchor="middle" x="4454" y="-175.8" font-family="Times,serif" font-size="14.00">PermissionCentreModule</text>
</g>
<!-- PermissionCentreDashboardComponent&#45;&gt;PermissionCentreModule -->
<g id="edge22" class="edge">
<title>PermissionCentreDashboardComponent&#45;&gt;PermissionCentreModule</title>
<path fill="none" stroke="black" d="M4495.39,-122.01C4495.39,-122.01 4495.39,-151.85 4495.39,-151.85"/>
<polygon fill="black" stroke="black" points="4491.89,-151.85 4495.39,-161.85 4498.89,-151.85 4491.89,-151.85"/>
</g>
<!-- PermissionCentreRoutingModule -->
<g id="node29" class="node">
<title>PermissionCentreRoutingModule</title>
<polygon fill="#8dd3c7" stroke="black" points="4433.2,-122 4430.2,-126 4409.2,-126 4406.2,-122 4228.8,-122 4228.8,-86 4433.2,-86 4433.2,-122"/>
<text text-anchor="middle" x="4331" y="-99.8" font-family="Times,serif" font-size="14.00">PermissionCentreRoutingModule</text>
</g>
<!-- PermissionCentreRoutingModule&#45;&gt;PermissionCentreModule -->
<g id="edge23" class="edge">
<title>PermissionCentreRoutingModule&#45;&gt;PermissionCentreModule</title>
<path fill="none" stroke="black" d="M4403.78,-122.01C4403.78,-122.01 4403.78,-151.85 4403.78,-151.85"/>
<polygon fill="black" stroke="black" points="4400.28,-151.85 4403.78,-161.85 4407.28,-151.85 4400.28,-151.85"/>
</g>
<!-- SettingsGeneralComponent -->
<g id="node30" class="node">
<title>SettingsGeneralComponent</title>
<polygon fill="#ffffb3" stroke="black" points="5451.25,-122 5280.75,-122 5280.75,-86 5451.25,-86 5451.25,-122"/>
<text text-anchor="middle" x="5366" y="-99.8" font-family="Times,serif" font-size="14.00">SettingsGeneralComponent</text>
</g>
<!-- SettingsModule -->
<g id="node33" class="node">
<title>SettingsModule</title>
<polygon fill="#8dd3c7" stroke="black" points="5142.16,-198 5139.16,-202 5118.16,-202 5115.16,-198 5037.84,-198 5037.84,-162 5142.16,-162 5142.16,-198"/>
<text text-anchor="middle" x="5090" y="-175.8" font-family="Times,serif" font-size="14.00">SettingsModule</text>
</g>
<!-- SettingsGeneralComponent&#45;&gt;SettingsModule -->
<g id="edge24" class="edge">
<title>SettingsGeneralComponent&#45;&gt;SettingsModule</title>
<path fill="none" stroke="black" d="M5366,-122.01C5366,-144.49 5366,-180 5366,-180 5366,-180 5152.24,-180 5152.24,-180"/>
<polygon fill="black" stroke="black" points="5152.24,-176.5 5142.24,-180 5152.24,-183.5 5152.24,-176.5"/>
</g>
<!-- SettingsHomeComponent -->
<g id="node31" class="node">
<title>SettingsHomeComponent</title>
<polygon fill="#ffffb3" stroke="black" points="5262.16,-122 5101.84,-122 5101.84,-86 5262.16,-86 5262.16,-122"/>
<text text-anchor="middle" x="5182" y="-99.8" font-family="Times,serif" font-size="14.00">SettingsHomeComponent</text>
</g>
<!-- SettingsHomeComponent&#45;&gt;SettingsModule -->
<g id="edge25" class="edge">
<title>SettingsHomeComponent&#45;&gt;SettingsModule</title>
<path fill="none" stroke="black" d="M5122,-122.01C5122,-122.01 5122,-151.85 5122,-151.85"/>
<polygon fill="black" stroke="black" points="5118.5,-151.85 5122,-161.85 5125.5,-151.85 5118.5,-151.85"/>
</g>
<!-- SettingsThemesComponent -->
<g id="node32" class="node">
<title>SettingsThemesComponent</title>
<polygon fill="#ffffb3" stroke="black" points="5083.26,-122 4912.74,-122 4912.74,-86 5083.26,-86 5083.26,-122"/>
<text text-anchor="middle" x="4998" y="-99.8" font-family="Times,serif" font-size="14.00">SettingsThemesComponent</text>
</g>
<!-- SettingsThemesComponent&#45;&gt;SettingsModule -->
<g id="edge26" class="edge">
<title>SettingsThemesComponent&#45;&gt;SettingsModule</title>
<path fill="none" stroke="black" d="M5060.52,-122.01C5060.52,-122.01 5060.52,-151.85 5060.52,-151.85"/>
<polygon fill="black" stroke="black" points="5057.02,-151.85 5060.52,-161.85 5064.02,-151.85 5057.02,-151.85"/>
</g>
<!-- SettingsRoutingModule -->
<g id="node34" class="node">
<title>SettingsRoutingModule</title>
<polygon fill="#8dd3c7" stroke="black" points="4888.78,-122 4885.78,-126 4864.78,-126 4861.78,-122 4739.22,-122 4739.22,-86 4888.78,-86 4888.78,-122"/>
<text text-anchor="middle" x="4814" y="-99.8" font-family="Times,serif" font-size="14.00">SettingsRoutingModule</text>
</g>
<!-- SettingsRoutingModule&#45;&gt;SettingsModule -->
<g id="edge27" class="edge">
<title>SettingsRoutingModule&#45;&gt;SettingsModule</title>
<path fill="none" stroke="black" d="M4814,-122.01C4814,-144.49 4814,-180 4814,-180 4814,-180 5027.76,-180 5027.76,-180"/>
<polygon fill="black" stroke="black" points="5027.76,-183.5 5037.76,-180 5027.76,-176.5 5027.76,-183.5"/>
</g>
<!-- ErrorComponent -->
<g id="node35" class="node">
<title>ErrorComponent</title>
<polygon fill="#ffffb3" stroke="black" points="3685.37,-122 3574.63,-122 3574.63,-86 3685.37,-86 3685.37,-122"/>
<text text-anchor="middle" x="3630" y="-99.8" font-family="Times,serif" font-size="14.00">ErrorComponent</text>
</g>
<!-- ErrorComponent&#45;&gt;SharedModule -->
<g id="edge28" class="edge">
<title>ErrorComponent&#45;&gt;SharedModule</title>
<path fill="none" stroke="black" d="M3630,-122.42C3630,-131.28 3630,-140 3630,-140 3630,-140 3087.64,-140 3087.64,-140 3087.64,-140 3087.64,-151.87 3087.64,-151.87"/>
<polygon fill="black" stroke="black" points="3084.14,-151.87 3087.64,-161.87 3091.14,-151.87 3084.14,-151.87"/>
</g>
<!-- LoadingIndicatorComponent -->
<g id="node36" class="node">
<title>LoadingIndicatorComponent</title>
<polygon fill="#ffffb3" stroke="black" points="3556.02,-122 3377.98,-122 3377.98,-86 3556.02,-86 3556.02,-122"/>
<text text-anchor="middle" x="3467" y="-99.8" font-family="Times,serif" font-size="14.00">LoadingIndicatorComponent</text>
</g>
<!-- LoadingIndicatorComponent&#45;&gt;SharedModule -->
<g id="edge29" class="edge">
<title>LoadingIndicatorComponent&#45;&gt;SharedModule</title>
<path fill="none" stroke="black" d="M3467,-122.14C3467,-128.46 3467,-134 3467,-134 3467,-134 3079.06,-134 3079.06,-134 3079.06,-134 3079.06,-151.82 3079.06,-151.82"/>
<polygon fill="black" stroke="black" points="3075.56,-151.82 3079.06,-161.82 3082.56,-151.82 3075.56,-151.82"/>
</g>
<!-- MainLayoutComponent -->
<g id="node37" class="node">
<title>MainLayoutComponent</title>
<polygon fill="#ffffb3" stroke="black" points="3359.04,-122 3208.96,-122 3208.96,-86 3359.04,-86 3359.04,-122"/>
<text text-anchor="middle" x="3284" y="-99.8" font-family="Times,serif" font-size="14.00">MainLayoutComponent</text>
</g>
<!-- MainLayoutComponent&#45;&gt;SharedModule -->
<g id="edge30" class="edge">
<title>MainLayoutComponent&#45;&gt;SharedModule</title>
<path fill="none" stroke="black" d="M3226.06,-122.19C3226.06,-125.54 3226.06,-128 3226.06,-128 3226.06,-128 3070.49,-128 3070.49,-128 3070.49,-128 3070.49,-151.81 3070.49,-151.81"/>
<polygon fill="black" stroke="black" points="3066.99,-151.81 3070.49,-161.81 3073.99,-151.81 3066.99,-151.81"/>
</g>
<!-- NavMenuComponent -->
<g id="node38" class="node">
<title>NavMenuComponent</title>
<polygon fill="#ffffb3" stroke="black" points="3190.81,-122 3053.19,-122 3053.19,-86 3190.81,-86 3190.81,-122"/>
<text text-anchor="middle" x="3122" y="-99.8" font-family="Times,serif" font-size="14.00">NavMenuComponent</text>
</g>
<!-- NavMenuComponent&#45;&gt;SharedModule -->
<g id="edge31" class="edge">
<title>NavMenuComponent&#45;&gt;SharedModule</title>
<path fill="none" stroke="black" d="M3061.92,-122.01C3061.92,-122.01 3061.92,-151.85 3061.92,-151.85"/>
<polygon fill="black" stroke="black" points="3058.42,-151.85 3061.92,-161.85 3065.42,-151.85 3058.42,-151.85"/>
</g>
<!-- NavMenuDirective -->
<g id="node39" class="node">
<title>NavMenuDirective</title>
<polygon fill="#ffffb3" stroke="black" points="3035.06,-122 2910.94,-122 2910.94,-86 3035.06,-86 3035.06,-122"/>
<text text-anchor="middle" x="2973" y="-99.8" font-family="Times,serif" font-size="14.00">NavMenuDirective</text>
</g>
<!-- NavMenuDirective&#45;&gt;SharedModule -->
<g id="edge32" class="edge">
<title>NavMenuDirective&#45;&gt;SharedModule</title>
<path fill="none" stroke="black" d="M3027.58,-122.01C3027.58,-122.01 3027.58,-151.85 3027.58,-151.85"/>
<polygon fill="black" stroke="black" points="3024.08,-151.85 3027.58,-161.85 3031.08,-151.85 3024.08,-151.85"/>
</g>
<!-- SidebarComponent -->
<g id="node40" class="node">
<title>SidebarComponent</title>
<polygon fill="#ffffb3" stroke="black" points="2893.1,-122 2768.9,-122 2768.9,-86 2893.1,-86 2893.1,-122"/>
<text text-anchor="middle" x="2831" y="-99.8" font-family="Times,serif" font-size="14.00">SidebarComponent</text>
</g>
<!-- SidebarComponent&#45;&gt;SharedModule -->
<g id="edge33" class="edge">
<title>SidebarComponent&#45;&gt;SharedModule</title>
<path fill="none" stroke="black" d="M2859.64,-122.1C2859.64,-133.09 2859.64,-145 2859.64,-145 2859.64,-145 3020.13,-145 3020.13,-145 3020.13,-145 3020.13,-151.68 3020.13,-151.68"/>
<polygon fill="black" stroke="black" points="3016.63,-151.68 3020.13,-161.68 3023.63,-151.68 3016.63,-151.68"/>
</g>
<!-- UserOptionsComponent -->
<g id="node41" class="node">
<title>UserOptionsComponent</title>
<polygon fill="#ffffb3" stroke="black" points="2751.09,-122 2598.91,-122 2598.91,-86 2751.09,-86 2751.09,-122"/>
<text text-anchor="middle" x="2675" y="-99.8" font-family="Times,serif" font-size="14.00">UserOptionsComponent</text>
</g>
<!-- UserOptionsComponent&#45;&gt;SharedModule -->
<g id="edge34" class="edge">
<title>UserOptionsComponent&#45;&gt;SharedModule</title>
<path fill="none" stroke="black" d="M2712.62,-122.04C2712.62,-135.29 2712.62,-151 2712.62,-151 2712.62,-151 3012.69,-151 3012.69,-151 3012.69,-151 3012.69,-152.08 3012.69,-152.08"/>
<polygon fill="black" stroke="black" points="3009.19,-151.8 3012.69,-161.8 3016.19,-151.8 3009.19,-151.8"/>
</g>
<!-- SharedRoutingModule -->
<g id="node42" class="node">
<title>SharedRoutingModule</title>
<polygon fill="#8dd3c7" stroke="black" points="2574.54,-122 2571.54,-126 2550.54,-126 2547.54,-122 2431.46,-122 2431.46,-86 2574.54,-86 2574.54,-122"/>
<text text-anchor="middle" x="2503" y="-99.8" font-family="Times,serif" font-size="14.00">SharedRoutingModule</text>
</g>
<!-- SharedRoutingModule&#45;&gt;SharedModule -->
<g id="edge35" class="edge">
<title>SharedRoutingModule&#45;&gt;SharedModule</title>
<path fill="none" stroke="black" d="M2503,-122.24C2503,-137.57 2503,-157 2503,-157 2503,-157 3005.24,-157 3005.24,-157 3005.24,-157 3005.24,-157.49 3005.24,-157.49"/>
<polygon fill="black" stroke="black" points="3001.74,-151.88 3005.24,-161.88 3008.74,-151.88 3001.74,-151.88"/>
</g>
</g>
</svg>
