<?xml version="1.0" encoding="UTF-8" standalone="no"?>
<!DOCTYPE svg PUBLIC "-//W3C//DTD SVG 1.1//EN"
 "http://www.w3.org/Graphics/SVG/1.1/DTD/svg11.dtd">
<!-- Generated by graphviz version 2.46.0 (20210119.1425)
 -->
<!-- Title: dependencies Pages: 1 -->
<svg width="526pt" height="211pt"
 viewBox="0.00 0.00 526.00 211.00" xmlns="http://www.w3.org/2000/svg" xmlns:xlink="http://www.w3.org/1999/xlink">
<g id="graph0" class="graph" transform="scale(1 1) rotate(0) translate(4 207)">
<title>dependencies</title>
<polygon fill="white" stroke="transparent" points="-4,4 -4,-207 522,-207 522,4 -4,4"/>
<text text-anchor="start" x="238.01" y="-42.4" font-family="sans-serif" font-weight="bold" font-size="14.00">Legend</text>
<polygon fill="#ffffb3" stroke="transparent" points="25,-10 25,-30 45,-30 45,-10 25,-10"/>
<text text-anchor="start" x="48.63" y="-15.4" font-family="sans-serif" font-size="14.00"> &#160;Declarations</text>
<polygon fill="#8dd3c7" stroke="transparent" points="138,-10 138,-30 158,-30 158,-10 138,-10"/>
<text text-anchor="start" x="161.73" y="-15.4" font-family="sans-serif" font-size="14.00"> &#160;Module</text>
<polygon fill="#80b1d3" stroke="transparent" points="224,-10 224,-30 244,-30 244,-10 224,-10"/>
<text text-anchor="start" x="247.78" y="-15.4" font-family="sans-serif" font-size="14.00"> &#160;Bootstrap</text>
<polygon fill="#fdb462" stroke="transparent" points="321,-10 321,-30 341,-30 341,-10 321,-10"/>
<text text-anchor="start" x="344.67" y="-15.4" font-family="sans-serif" font-size="14.00"> &#160;Providers</text>
<polygon fill="#fb8072" stroke="transparent" points="417,-10 417,-30 437,-30 437,-10 417,-10"/>
<text text-anchor="start" x="440.73" y="-15.4" font-family="sans-serif" font-size="14.00"> &#160;Exports</text>
<g id="clust1" class="cluster">
<title>cluster_PermissionCentreModule</title>
<polygon fill="none" stroke="black" stroke-dasharray="1,5" points="8,-70 8,-195 510,-195 510,-70 8,-70"/>
</g>
<g id="clust2" class="cluster">
<title>cluster_PermissionCentreModule_declarations</title>
<polygon fill="none" stroke="black" points="244,-78 244,-130 502,-130 502,-78 244,-78"/>
</g>
<g id="clust4" class="cluster">
<title>cluster_PermissionCentreModule_imports</title>
<polygon fill="none" stroke="black" points="16,-78 16,-130 236,-130 236,-78 16,-78"/>
</g>
<!-- PermissionCentreDashboardComponent -->
<g id="node1" class="node">
<title>PermissionCentreDashboardComponent</title>
<polygon fill="#ffffb3" stroke="black" points="493.51,-122 252.49,-122 252.49,-86 493.51,-86 493.51,-122"/>
<text text-anchor="middle" x="373" y="-99.8" font-family="Times,serif" font-size="14.00">PermissionCentreDashboardComponent</text>
</g>
<!-- PermissionCentreModule -->
<g id="node2" class="node">
<title>PermissionCentreModule</title>
<polygon fill="#8dd3c7" stroke="black" points="328.59,-187 325.59,-191 304.59,-191 301.59,-187 169.41,-187 169.41,-151 328.59,-151 328.59,-187"/>
<text text-anchor="middle" x="249" y="-164.8" font-family="Times,serif" font-size="14.00">PermissionCentreModule</text>
</g>
<!-- PermissionCentreDashboardComponent&#45;&gt;PermissionCentreModule -->
<g id="edge1" class="edge">
<title>PermissionCentreDashboardComponent&#45;&gt;PermissionCentreModule</title>
<path fill="none" stroke="black" d="M290.39,-122.11C290.39,-122.11 290.39,-140.99 290.39,-140.99"/>
<polygon fill="black" stroke="black" points="286.89,-140.99 290.39,-150.99 293.89,-140.99 286.89,-140.99"/>
</g>
<!-- PermissionCentreRoutingModule -->
<g id="node3" class="node">
<title>PermissionCentreRoutingModule</title>
<polygon fill="#8dd3c7" stroke="black" points="228.2,-122 225.2,-126 204.2,-126 201.2,-122 23.8,-122 23.8,-86 228.2,-86 228.2,-122"/>
<text text-anchor="middle" x="126" y="-99.8" font-family="Times,serif" font-size="14.00">PermissionCentreRoutingModule</text>
</g>
<!-- PermissionCentreRoutingModule&#45;&gt;PermissionCentreModule -->
<g id="edge2" class="edge">
<title>PermissionCentreRoutingModule&#45;&gt;PermissionCentreModule</title>
<path fill="none" stroke="black" d="M198.78,-122.11C198.78,-122.11 198.78,-140.99 198.78,-140.99"/>
<polygon fill="black" stroke="black" points="195.28,-140.99 198.78,-150.99 202.28,-140.99 195.28,-140.99"/>
</g>
</g>
</svg>
