<?xml version="1.0" encoding="UTF-8" standalone="no"?>
<!DOCTYPE svg PUBLIC "-//W3C//DTD SVG 1.1//EN"
 "http://www.w3.org/Graphics/SVG/1.1/DTD/svg11.dtd">
<!-- Generated by graphviz version 2.46.0 (20210119.1425)
 -->
<!-- Title: dependencies Pages: 1 -->
<svg width="1304pt" height="211pt"
 viewBox="0.00 0.00 1304.00 211.00" xmlns="http://www.w3.org/2000/svg" xmlns:xlink="http://www.w3.org/1999/xlink">
<g id="graph0" class="graph" transform="scale(1 1) rotate(0) translate(4 207)">
<title>dependencies</title>
<polygon fill="white" stroke="transparent" points="-4,4 -4,-207 1300,-207 1300,4 -4,4"/>
<text text-anchor="start" x="627.01" y="-42.4" font-family="sans-serif" font-weight="bold" font-size="14.00">Legend</text>
<polygon fill="#ffffb3" stroke="transparent" points="414,-10 414,-30 434,-30 434,-10 414,-10"/>
<text text-anchor="start" x="437.63" y="-15.4" font-family="sans-serif" font-size="14.00"> &#160;Declarations</text>
<polygon fill="#8dd3c7" stroke="transparent" points="527,-10 527,-30 547,-30 547,-10 527,-10"/>
<text text-anchor="start" x="550.73" y="-15.4" font-family="sans-serif" font-size="14.00"> &#160;Module</text>
<polygon fill="#80b1d3" stroke="transparent" points="613,-10 613,-30 633,-30 633,-10 613,-10"/>
<text text-anchor="start" x="636.78" y="-15.4" font-family="sans-serif" font-size="14.00"> &#160;Bootstrap</text>
<polygon fill="#fdb462" stroke="transparent" points="710,-10 710,-30 730,-30 730,-10 710,-10"/>
<text text-anchor="start" x="733.67" y="-15.4" font-family="sans-serif" font-size="14.00"> &#160;Providers</text>
<polygon fill="#fb8072" stroke="transparent" points="806,-10 806,-30 826,-30 826,-10 806,-10"/>
<text text-anchor="start" x="829.73" y="-15.4" font-family="sans-serif" font-size="14.00"> &#160;Exports</text>
<g id="clust1" class="cluster">
<title>cluster_AccountModule</title>
<polygon fill="none" stroke="black" stroke-dasharray="1,5" points="8,-70 8,-195 1288,-195 1288,-70 8,-70"/>
</g>
<g id="clust8" class="cluster">
<title>cluster_AccountModule_imports</title>
<polygon fill="none" stroke="black" points="1112,-78 1112,-130 1280,-130 1280,-78 1112,-78"/>
</g>
<g id="clust2" class="cluster">
<title>cluster_AccountModule_declarations</title>
<polygon fill="none" stroke="black" points="16,-78 16,-130 1104,-130 1104,-78 16,-78"/>
</g>
<!-- AccountChangePasswordComponent -->
<g id="node1" class="node">
<title>AccountChangePasswordComponent</title>
<polygon fill="#ffffb3" stroke="black" points="1095.68,-122 870.32,-122 870.32,-86 1095.68,-86 1095.68,-122"/>
<text text-anchor="middle" x="983" y="-99.8" font-family="Times,serif" font-size="14.00">AccountChangePasswordComponent</text>
</g>
<!-- AccountModule -->
<g id="node6" class="node">
<title>AccountModule</title>
<polygon fill="#8dd3c7" stroke="black" points="706.48,-187 703.48,-191 682.48,-191 679.48,-187 599.52,-187 599.52,-151 706.48,-151 706.48,-187"/>
<text text-anchor="middle" x="653" y="-164.8" font-family="Times,serif" font-size="14.00">AccountModule</text>
</g>
<!-- AccountChangePasswordComponent&#45;&gt;AccountModule -->
<g id="edge1" class="edge">
<title>AccountChangePasswordComponent&#45;&gt;AccountModule</title>
<path fill="none" stroke="black" d="M983,-122.02C983,-139.37 983,-163 983,-163 983,-163 716.75,-163 716.75,-163"/>
<polygon fill="black" stroke="black" points="716.75,-159.5 706.75,-163 716.75,-166.5 716.75,-159.5"/>
</g>
<!-- AccountDashboardComponent -->
<g id="node2" class="node">
<title>AccountDashboardComponent</title>
<polygon fill="#ffffb3" stroke="black" points="852.9,-122 663.1,-122 663.1,-86 852.9,-86 852.9,-122"/>
<text text-anchor="middle" x="758" y="-99.8" font-family="Times,serif" font-size="14.00">AccountDashboardComponent</text>
</g>
<!-- AccountDashboardComponent&#45;&gt;AccountModule -->
<g id="edge2" class="edge">
<title>AccountDashboardComponent&#45;&gt;AccountModule</title>
<path fill="none" stroke="black" d="M684.89,-122.11C684.89,-122.11 684.89,-140.99 684.89,-140.99"/>
<polygon fill="black" stroke="black" points="681.39,-140.99 684.89,-150.99 688.39,-140.99 681.39,-140.99"/>
</g>
<!-- AccountNewProfileComponent -->
<g id="node3" class="node">
<title>AccountNewProfileComponent</title>
<polygon fill="#ffffb3" stroke="black" points="645.79,-122 452.21,-122 452.21,-86 645.79,-86 645.79,-122"/>
<text text-anchor="middle" x="549" y="-99.8" font-family="Times,serif" font-size="14.00">AccountNewProfileComponent</text>
</g>
<!-- AccountNewProfileComponent&#45;&gt;AccountModule -->
<g id="edge3" class="edge">
<title>AccountNewProfileComponent&#45;&gt;AccountModule</title>
<path fill="none" stroke="black" d="M622.58,-122.11C622.58,-122.11 622.58,-140.99 622.58,-140.99"/>
<polygon fill="black" stroke="black" points="619.08,-140.99 622.58,-150.99 626.08,-140.99 619.08,-140.99"/>
</g>
<!-- AccountProfileCardComponent -->
<g id="node4" class="node">
<title>AccountProfileCardComponent</title>
<polygon fill="#ffffb3" stroke="black" points="434.07,-122 239.93,-122 239.93,-86 434.07,-86 434.07,-122"/>
<text text-anchor="middle" x="337" y="-99.8" font-family="Times,serif" font-size="14.00">AccountProfileCardComponent</text>
</g>
<!-- AccountProfileCardComponent&#45;&gt;AccountModule -->
<g id="edge4" class="edge">
<title>AccountProfileCardComponent&#45;&gt;AccountModule</title>
<path fill="none" stroke="black" d="M337,-122.02C337,-139.37 337,-163 337,-163 337,-163 589.39,-163 589.39,-163"/>
<polygon fill="black" stroke="black" points="589.39,-166.5 599.39,-163 589.39,-159.5 589.39,-166.5"/>
</g>
<!-- AccountProfileViewComponent -->
<g id="node5" class="node">
<title>AccountProfileViewComponent</title>
<polygon fill="#ffffb3" stroke="black" points="221.68,-122 24.32,-122 24.32,-86 221.68,-86 221.68,-122"/>
<text text-anchor="middle" x="123" y="-99.8" font-family="Times,serif" font-size="14.00">AccountProfileViewComponent</text>
</g>
<!-- AccountProfileViewComponent&#45;&gt;AccountModule -->
<g id="edge5" class="edge">
<title>AccountProfileViewComponent&#45;&gt;AccountModule</title>
<path fill="none" stroke="black" d="M123,-122.28C123,-143.32 123,-175 123,-175 123,-175 589.26,-175 589.26,-175"/>
<polygon fill="black" stroke="black" points="589.26,-178.5 599.26,-175 589.26,-171.5 589.26,-178.5"/>
</g>
<!-- AccountRoutingModule -->
<g id="node7" class="node">
<title>AccountRoutingModule</title>
<polygon fill="#8dd3c7" stroke="black" points="1272.09,-122 1269.09,-126 1248.09,-126 1245.09,-122 1119.91,-122 1119.91,-86 1272.09,-86 1272.09,-122"/>
<text text-anchor="middle" x="1196" y="-99.8" font-family="Times,serif" font-size="14.00">AccountRoutingModule</text>
</g>
<!-- AccountRoutingModule&#45;&gt;AccountModule -->
<g id="edge6" class="edge">
<title>AccountRoutingModule&#45;&gt;AccountModule</title>
<path fill="none" stroke="black" d="M1196,-122.28C1196,-143.32 1196,-175 1196,-175 1196,-175 716.55,-175 716.55,-175"/>
<polygon fill="black" stroke="black" points="716.55,-171.5 706.55,-175 716.55,-178.5 716.55,-171.5"/>
</g>
</g>
</svg>
